<svg id="Capa_1" data-name="Capa 1" xmlns="http://www.w3.org/2000/svg" viewBox="0 0 1080 400"><defs><style>.cls-1{fill:#2b66d4;}.cls-2,.cls-3{opacity:0.2;}.cls-3{fill-rule:evenodd;}.cls-4{fill:#333;}</style></defs><polygon class="cls-1" points="270.08 296.53 242.9 312.23 203.95 334.72 165.54 312.54 143.93 300.07 137.81 296.53 143.93 293.01 176.76 274.05 204.49 290.06 231.68 274.36 270.08 296.53"/><path class="cls-1" d="M315.19,129.23l-25.25-14.59h0v0L204,65,172.22,83.31,147.76,97.44l-3.83,2.21-25.32,14.61-.72.43L92.7,129.23l-6.85,3.94V266.54l26.5,15.29,6.26-3.61,25.32-14.61,7.38-4.26,27.18-15.7,25.57-14.76.11-.06,25.46,14.7,27.72,16h0l6,3.48V227.77L204,193.46l-30.53,17.62-25.69,14.83-3.8,2.19-23.38,13.5-1.94,1.11V150.89l5.81-3.35,19.51-11.26,5.68-3.28,29.87-17.25L204,101.63l86,49.63v28.26l-.18-.1L259,161.67l-25.26-14.59L204,130.68l-28.49,17.25-25.18,14.53-6.35,3.67v32.81l9.41-5.43,25.35-14.64,25.18-14.55,0,0,25.22,14.56,30.75,17.75,25.46,14.7,4.59,2.65v64.33l5.84,3.37,25.7-14.83v-134Z"/><polygon class="cls-2" points="118.62 150.9 118.62 242.71 85.86 266.54 85.86 133.17 118.62 150.9"/><polygon class="cls-2" points="203.95 130.68 203.95 164.33 143.93 198.94 143.93 166.13 203.95 130.68"/><polygon class="cls-3" points="263.39 227.77 263.39 263.07 204.06 228.9 203.95 228.83 203.95 193.46 263.39 227.77"/><polygon class="cls-3" points="289.92 151.26 321.46 132.84 203.95 64.99 203.95 101.62 289.92 151.26"/><polygon class="cls-3" points="204.49 290.06 204.49 334.72 137.81 296.53 176.76 274.05 204.49 290.06"/><path class="cls-4" d="M392.19,250.16a53.39,53.39,0,0,1-18.78-13.68,3.19,3.19,0,0,1-.91-2,3.29,3.29,0,0,1,1.13-2.27L387,219.47a2.93,2.93,0,0,1,2-1,2.87,2.87,0,0,1,2.19,1.13,32.75,32.75,0,0,0,10.81,7.52,31.41,31.41,0,0,0,12.4,2.54q6.42,0,9.6-2.2a6.89,6.89,0,0,0,3.17-6,7.25,7.25,0,0,0-1.4-4.46,14.37,14.37,0,0,0-5.36-3.78,85.06,85.06,0,0,0-11.6-4.15,62.8,62.8,0,0,1-22.49-11.83q-9.87-8.13-9.87-22A28.4,28.4,0,0,1,393.36,149q8.53-4.2,21-4.2a54.39,54.39,0,0,1,20.11,3.78,59.27,59.27,0,0,1,17.08,10.21A2.85,2.85,0,0,1,452.7,161a3.28,3.28,0,0,1-.91,2.11l-12.25,13.76a2.79,2.79,0,0,1-2.19,1.21,3.39,3.39,0,0,1-2-.83,42.68,42.68,0,0,0-9.6-5.63,26.61,26.61,0,0,0-10.58-2.31q-10.67,0-10.66,6.28a6.2,6.2,0,0,0,1.74,4.46,14.29,14.29,0,0,0,4.65,3.09q2.91,1.29,9,3.41c.55.15,1.38.42,2.49.83a93.58,93.58,0,0,1,17.76,8.09A32.3,32.3,0,0,1,451,206a28,28,0,0,1,3.85,15A31.33,31.33,0,0,1,436,250.65a48.83,48.83,0,0,1-20.86,4.2A56.92,56.92,0,0,1,392.19,250.16Z"/><path class="cls-4" d="M545.44,253H473.18c-2,0-3-1-3-3V149.86a2.68,2.68,0,0,1,3-3H544.3a2.68,2.68,0,0,1,3,3v18.52q0,3-3,3H497.37V188h36c2,0,3,1,3,3v17c0,2-1,3-3,3h-36v17.46h48.07a2.67,2.67,0,0,1,3,3V250A2.67,2.67,0,0,1,545.44,253Z"/><path class="cls-4" d="M588.52,253H567.36c-2,0-3-1-3-3V149.86c0-2,1-3,3-3h40.89a42.24,42.24,0,0,1,20.14,4.61,33.15,33.15,0,0,1,13.38,12.74,35.81,35.81,0,0,1,4.73,18.33A40.18,40.18,0,0,1,642,201.94a31.66,31.66,0,0,1-13.11,13q-8.58,4.65-20.3,4.65h-17V250C591.55,252,590.54,253,588.52,253Zm24.42-59.56a12,12,0,0,0,6.35-10.73,10.49,10.49,0,0,0-1.7-5.9,11.58,11.58,0,0,0-4.61-4,14.58,14.58,0,0,0-6.54-1.44H591.55v23.66h14.81A13.65,13.65,0,0,0,612.94,193.47Z"/><path class="cls-4" d="M682.51,247.52a55.78,55.78,0,0,1-20-75.52,53.53,53.53,0,0,1,19.92-19.91,54.94,54.94,0,0,1,28-7.3,56.28,56.28,0,0,1,18,2.87A54.76,54.76,0,0,1,744,155.75a2.83,2.83,0,0,1,1.29,2.27,3.26,3.26,0,0,1-.76,2l-12.24,16a3,3,0,0,1-2.27,1.28,3.4,3.4,0,0,1-2-.68,34.3,34.3,0,0,0-8.39-4.19,28.17,28.17,0,0,0-9.14-1.55,26,26,0,0,0-13.68,3.82,28.4,28.4,0,0,0-10.17,10.47A29.52,29.52,0,0,0,696.87,225a26,26,0,0,0,13.65,3.85,29.08,29.08,0,0,0,9.18-1.32,32.52,32.52,0,0,0,8.51-4.57,3.78,3.78,0,0,1,2-.68,2.83,2.83,0,0,1,2.26,1.28l12,16.1a3.9,3.9,0,0,1,.83,2.12,2.57,2.57,0,0,1-1.13,2A54.29,54.29,0,0,1,728.58,252a56,56,0,0,1-18.06,2.91A54.53,54.53,0,0,1,682.51,247.52Z"/><path class="cls-4" d="M777.6,247.52a55.8,55.8,0,0,1-20-75.52,53.61,53.61,0,0,1,19.92-19.91,57.26,57.26,0,0,1,56,0,54.43,54.43,0,0,1,27.21,47.62,55.49,55.49,0,0,1-83.18,47.78ZM819.29,225a28.23,28.23,0,0,0,10.12-10.51,29.37,29.37,0,0,0,3.78-14.7,28.87,28.87,0,0,0-3.82-14.66,28.45,28.45,0,0,0-10.16-10.47,26.28,26.28,0,0,0-27.29,0,28.45,28.45,0,0,0-10.16,10.47A29.52,29.52,0,0,0,792,225a26.29,26.29,0,0,0,27.33,0Z"/><path class="cls-4" d="M892.68,253H871.29a2.59,2.59,0,0,1-2.87-3.17l12.92-100.23a3,3,0,0,1,1-2.08,3.39,3.39,0,0,1,2.23-.72h25a3.14,3.14,0,0,1,3.33,2.57l18.29,66,18.22-66a3.13,3.13,0,0,1,3.32-2.57h25.1a3.39,3.39,0,0,1,2.23.72,3,3,0,0,1,1,2.08l13,100.3a2.61,2.61,0,0,1-2.87,3.18H969.78a2.92,2.92,0,0,1-3.18-2.87l-6.34-59.72-16.33,59.94A3.13,3.13,0,0,1,940.6,253H922.16a3.13,3.13,0,0,1-3.33-2.57l-16.32-59.94-6.65,59.64A2.92,2.92,0,0,1,892.68,253Z"/></svg>